<?xml version="1.0" encoding="UTF-8"?>
<!-- Generator: Adobe Illustrator 21.1.0, SVG Export Plug-In . SVG Version: 6.00 Build 0)  -->
<svg version="1.1" id="Layer_1" xmlns="http://www.w3.org/2000/svg" xmlns:xlink="http://www.w3.org/1999/xlink" x="0px" y="0px" viewBox="0 0 50 50" style="enable-background:new 0 0 50 50;" xml:space="preserve">
<style type="text/css">
	.st0{fill:#FFFFFF;}
	.st1{fill:#2D4155;}
	.st2{fill:#A7BADB;}
	.st3{fill:#052D8D;}
	.st4{fill:#272122;}
	.st5{fill:#D7D8D9;}
</style>
<g id="Layer_3">
</g>
<g id="Layer_1_1_">
	<path class="st0" d="M37.2,4.3C33.6,2.2,29.5,1,25,1C11.7,1,1,11.7,1,25c0,3.3,0.7,6.4,1.8,9.2h34.4V4.3z"/>
	<path class="st1" d="M1.7,30.9c-0.1-0.4-0.2-0.8-0.3-1.1C1.6,30.2,1.6,30.5,1.7,30.9z"/>
	<path class="st1" d="M1.1,26.9c0-0.2,0-0.5-0.1-0.7C1,26.5,1.1,26.7,1.1,26.9z"/>
	<path class="st1" d="M37.2,4.3v29.9H2.8C6.5,42.9,15,49,25,49c13.3,0,24-10.7,24-24C49,16.2,44.3,8.5,37.2,4.3z"/>
	<path class="st1" d="M1.5,29.7c-0.1-0.3-0.1-0.7-0.2-1.1C1.3,29,1.4,29.3,1.5,29.7z"/>
	<path class="st1" d="M1.2,28.3c0-0.3-0.1-0.6-0.1-0.9C1.2,27.7,1.2,28,1.2,28.3z"/>
	<g>
		<path class="st0" d="M18.5,42.8l-0.4-1.2h-2.4l-0.4,1.2h-1l2.2-6.1h0.7l2.2,6.1H18.5z M16.9,38.1L16,40.8h1.9L16.9,38.1z"/>
		<path class="st0" d="M24.8,42.8v-4l-1.4,2.9h-0.7l-1.4-2.9v4h-0.9v-6.1h0.9l1.8,3.8l1.7-3.8h0.9v6.1H24.8z"/>
		<path class="st0" d="M31,42l0.6,0.6L31.1,43l-0.6-0.6c-0.3,0.2-0.8,0.4-1.3,0.4c-0.7,0-1.2-0.2-1.6-0.6C27,41.6,27,41,27,39.7    s0-1.9,0.6-2.5c0.4-0.4,0.9-0.6,1.6-0.6s1.2,0.2,1.6,0.6c0.6,0.6,0.6,1.2,0.6,2.5C31.4,40.8,31.4,41.4,31,42z M30.1,37.9    c-0.2-0.2-0.5-0.4-0.9-0.4s-0.7,0.1-0.9,0.4C28,38.2,28,38.5,28,39.7s0.1,1.6,0.4,1.9c0.2,0.2,0.5,0.4,0.9,0.4    c0.2,0,0.4-0.1,0.6-0.2l-0.6-0.6l0.5-0.5l0.6,0.6c0.2-0.3,0.2-0.7,0.2-1.5C30.5,38.5,30.4,38.2,30.1,37.9z"/>
		<path class="st0" d="M35.1,40.4h-1.4v2.4h-0.9v-6.1h2.3c1.2,0,1.9,0.8,1.9,1.8S36.3,40.4,35.1,40.4z M35,37.5h-1.3v2H35    c0.6,0,1.1-0.4,1.1-1S35.7,37.5,35,37.5z"/>
	</g>
	<path class="st2" d="M20.5,1.4C16.4,2.2,12.7,4,9.6,6.6l10.9,10.9V1.4z"/>
	<path class="st3" d="M20.5,17.4L9.6,6.6c-3.4,2.8-6,6.6-7.4,10.8H20.5z"/>
	<path class="st4" d="M35.2,32.2L22.4,19.4H1.7c-0.3,1.1-0.5,2.3-0.6,3.4v4.3c0.2,1.8,0.5,3.5,1,5.1C2.1,32.2,35.2,32.2,35.2,32.2z"/>
	<path class="st5" d="M35.2,32.2V3.3h-0.1C32,1.8,28.6,1,25,1c-0.9,0-1.7,0-2.6,0.1v18.3L35.2,32.2z"/>
	<path class="st5" d="M35.2,3.3C35.2,3.3,35.1,3.2,35.2,3.3C35.1,3.2,35.2,3.3,35.2,3.3L35.2,3.3z"/>
</g>
<g id="Layer_2">
</g>
</svg>