<svg height="50" width="50" viewBox="0 0 250 250" fill="none" xmlns="http://www.w3.org/2000/svg">
<g clip-path="url(#clip0_2111_4686)">
<path d="M30.0942 48.827V78.0089H30.659C110.109 78.0089 174.874 142.021 175.533 220.906H203.867C203.114 126.112 125.547 49.1094 30.0942 48.827ZM30.0942 109.073V138.255H30.659C76.6911 138.255 114.251 175.25 114.91 220.906H143.245C142.586 159.342 92.1292 109.356 30.0942 109.073ZM221 145.41V86.5751C213.752 76.691 204.809 65.3948 195.866 56.6402C185.888 46.756 174.215 37.8132 162.919 30H100.413C155.2 49.6742 199.161 91.9408 221 145.41Z" fill="white"/>
<path d="M30.5648 138.255H30V211.304C30 216.576 34.3302 220.906 39.6018 220.906H114.816C114.157 175.25 76.691 138.255 30.5648 138.255ZM30.5648 78.0089H30V109.073C92.035 109.356 142.491 159.247 143.15 220.906H175.344C174.78 142.021 110.109 78.0089 30.5648 78.0089ZM221 211.398V145.41C199.161 91.9409 155.2 49.6743 100.507 30H39.6018C34.3302 30 30 34.3303 30 39.6018V48.9212C125.453 49.2036 203.114 126.112 203.679 221H211.398C216.764 220.906 221 216.67 221 211.398ZM195.866 56.6403C204.715 65.4889 213.752 76.691 221 86.5752V39.5077C221.004 38.2581 220.76 37.0201 220.284 35.8649C219.807 34.7097 219.107 33.6601 218.224 32.7765C217.34 31.8928 216.29 31.1927 215.135 30.7162C213.98 30.2397 212.742 29.9963 211.492 30H163.013C174.309 37.8132 185.982 46.7561 195.866 56.6403Z" fill="#660066"/>
</g>
<defs>
<clipPath id="clip0_2111_4686">
<rect width="191" height="191" fill="white" transform="translate(30 30)"/>
</clipPath>
</defs>
</svg>